<svg width="1210" height="636" viewBox="0 0 1210 636" fill="none" xmlns="http://www.w3.org/2000/svg">
<path opacity="0.55" fill-rule="evenodd" clip-rule="evenodd" d="M870.169 0H830.921C814.039 0 800.352 13.5296 800.352 30.2139V168.933C800.352 168.96 800.352 168.987 800.352 169.013V169.054L800.352 169.055V253.487V494.751C800.352 511.436 814.039 524.965 830.921 524.965H870.169C887.05 524.965 900.738 511.475 900.738 494.791V253.527V169.055C900.738 152.371 887.05 138.841 870.169 138.841H830.921C828.203 138.841 825.567 139.192 823.058 139.85C825.567 139.191 828.203 138.84 830.921 138.84H870.169C887.051 138.84 900.738 152.369 900.738 169.054V30.2139C900.738 13.5275 887.051 0 870.169 0ZM215.001 210.195H247.344C266.118 210.195 281.345 194.97 281.345 176.194V114.109C281.345 95.3344 266.12 80.1079 247.344 80.1079H215.001C196.224 80.1079 181 95.3324 181 114.109V176.194C181 194.968 196.224 210.195 215.001 210.195ZM1175.15 210.195H1142.81C1124.03 210.195 1108.81 194.968 1108.81 176.194V114.109C1108.81 95.3324 1124.03 80.1079 1142.81 80.1079H1175.15C1193.93 80.1079 1209.15 95.3344 1209.15 114.109V176.194C1209.15 194.97 1193.93 210.195 1175.15 210.195ZM988.817 104.362H1020.73C1039.62 104.362 1054.97 119.351 1054.97 137.851V178.635V269.535C1054.96 270.232 1054.94 270.924 1054.9 271.611C1054.94 270.924 1054.96 270.232 1054.97 269.535V386.583C1054.93 405.044 1039.62 420.033 1020.73 420.033H988.817C969.923 420.033 954.58 405.044 954.58 386.544V269.676C954.579 269.616 954.579 269.556 954.579 269.495V178.635V137.851C954.579 119.351 969.922 104.362 988.817 104.362ZM405.517 0H366.27C349.388 0 335.7 10.847 335.7 24.179V169.063C335.699 169.152 335.698 169.242 335.698 169.332V376.73V395.86C335.698 409.232 349.386 420.039 366.268 420.039H405.515C422.397 420.039 436.085 409.232 436.085 395.9V376.77V169.332C436.085 163.717 433.671 158.554 429.62 154.454C433.672 158.554 436.087 163.718 436.087 169.334V24.179C436.087 10.8075 422.399 0 405.517 0ZM556.587 326.502H524.676C505.781 326.502 490.438 311.513 490.438 293.013V386.593C490.438 405.093 505.781 420.082 524.676 420.082H556.587C575.482 420.082 590.825 405.093 590.825 386.593V293.465C590.827 293.313 590.828 293.16 590.828 293.007V164.885V137.851C590.828 119.351 575.485 104.362 556.59 104.362H524.679C505.747 104.362 490.442 119.351 490.442 137.851V164.885V293.007C490.442 311.507 505.785 326.496 524.679 326.496H556.59C569.022 326.496 579.917 320.007 585.915 310.299C579.918 320.01 569.022 326.502 556.587 326.502ZM655.61 375.74C649.458 370.213 645.596 362.24 645.596 353.377V82.0032V30.2139C645.596 13.5296 659.283 0 676.165 0H715.413C732.294 0 745.982 13.5275 745.982 30.2139V82.0032V353.377C745.982 353.481 745.982 353.585 745.981 353.688V494.786C745.981 511.47 732.293 525 715.411 525H676.164C659.282 525 645.594 511.47 645.594 494.786V353.376C645.594 362.239 649.457 370.213 655.61 375.74Z" fill="url(#paint0_linear)"/>
<path opacity="0.55" fill-rule="evenodd" clip-rule="evenodd" d="M689.169 111H649.921C633.039 111 619.352 124.53 619.352 141.214V279.933C619.352 279.96 619.352 279.987 619.352 280.013V280.054L619.352 280.055V364.487V605.751C619.352 622.436 633.039 635.965 649.921 635.965H689.169C706.05 635.965 719.738 622.475 719.738 605.791V364.527V280.055C719.738 263.371 706.05 249.841 689.169 249.841H649.921C647.203 249.841 644.567 250.192 642.058 250.85C644.567 250.191 647.203 249.84 649.921 249.84H689.169C706.051 249.84 719.738 263.369 719.738 280.054V141.214C719.738 124.528 706.051 111 689.169 111ZM34.0008 321.195H66.3442C85.1184 321.195 100.345 305.97 100.345 287.194V225.109C100.345 206.334 85.1205 191.108 66.3442 191.108H34.0008C15.2244 191.108 0 206.332 0 225.109V287.194C0 305.968 15.2244 321.195 34.0008 321.195ZM994.151 321.195H961.807C943.031 321.195 927.806 305.968 927.806 287.194V225.109C927.806 206.332 943.031 191.108 961.807 191.108H994.151C1012.93 191.108 1028.15 206.334 1028.15 225.109V287.194C1028.15 305.97 1012.93 321.195 994.151 321.195ZM807.817 215.362H839.728C858.623 215.362 873.966 230.351 873.966 248.851V289.635V380.535C873.964 381.232 873.941 381.924 873.897 382.611C873.941 381.924 873.965 381.232 873.966 380.535V497.583C873.927 516.044 858.623 531.033 839.728 531.033H807.817C788.923 531.033 773.58 516.044 773.58 497.544V380.676C773.579 380.616 773.579 380.556 773.579 380.495V289.635V248.851C773.579 230.351 788.922 215.362 807.817 215.362ZM224.517 111H185.27C168.388 111 154.7 121.847 154.7 135.179V280.063C154.699 280.152 154.698 280.242 154.698 280.332V487.73V506.86C154.698 520.232 168.386 531.039 185.268 531.039H224.515C241.397 531.039 255.085 520.232 255.085 506.9V487.77V280.332C255.085 274.717 252.671 269.554 248.62 265.454C252.672 269.554 255.087 274.718 255.087 280.334V135.179C255.087 121.807 241.399 111 224.517 111ZM375.587 437.502H343.676C324.781 437.502 309.438 422.513 309.438 404.013V497.593C309.438 516.093 324.781 531.082 343.676 531.082H375.587C394.482 531.082 409.825 516.093 409.825 497.593V404.465C409.827 404.313 409.828 404.16 409.828 404.007V275.885V248.851C409.828 230.351 394.485 215.362 375.59 215.362H343.679C324.747 215.362 309.442 230.351 309.442 248.851V275.885V404.007C309.442 422.507 324.785 437.496 343.679 437.496H375.59C388.022 437.496 398.917 431.007 404.915 421.299C398.918 431.01 388.022 437.502 375.587 437.502ZM474.61 486.74C468.458 481.213 464.596 473.24 464.596 464.377V193.003V141.214C464.596 124.53 478.283 111 495.165 111H534.413C551.294 111 564.982 124.528 564.982 141.214V193.003V464.377C564.982 464.481 564.982 464.585 564.981 464.688V605.786C564.981 622.47 551.293 636 534.411 636H495.164C478.282 636 464.594 622.47 464.594 605.786V464.376C464.594 473.239 468.457 481.213 474.61 486.74Z" fill="url(#paint1_linear)"/>
<defs>
<linearGradient id="paint0_linear" x1="1083.37" y1="-1998.5" x2="1083.37" y2="383.591" gradientUnits="userSpaceOnUse">
<stop stop-color="white"/>
<stop offset="1" stop-color="white" stop-opacity="0"/>
</linearGradient>
<linearGradient id="paint1_linear" x1="902.37" y1="-1887.5" x2="902.37" y2="494.591" gradientUnits="userSpaceOnUse">
<stop stop-color="white"/>
<stop offset="1" stop-color="white" stop-opacity="0"/>
</linearGradient>
</defs>
</svg>
