<svg width="886" height="477" viewBox="0 0 886 477" fill="none" xmlns="http://www.w3.org/2000/svg">
<path opacity="0.55" fill-rule="evenodd" clip-rule="evenodd" d="M600.149 34H567.053C552.818 34 541.275 45.409 541.275 59.4782V176.446C541.275 176.483 541.275 176.519 541.275 176.556L541.275 176.558V247.756V451.205C541.275 465.274 552.817 476.683 567.053 476.683H600.149C614.385 476.683 625.927 465.307 625.927 451.238V247.79V176.558C625.927 162.489 614.385 151.08 600.149 151.08H567.053C564.522 151.08 562.075 151.44 559.764 152.112C562.075 151.44 564.522 151.078 567.053 151.078H600.149C614.385 151.078 625.927 162.487 625.927 176.556V59.4782C625.927 45.4072 614.385 34 600.149 34ZM47.6715 211.249H74.9454C90.777 211.249 103.617 198.411 103.617 182.578V130.224C103.617 114.392 90.7788 101.552 74.9454 101.552H47.6715C31.8382 101.552 19 114.39 19 130.224V182.578C19 198.409 31.8382 211.249 47.6715 211.249ZM857.329 211.249H830.055C814.221 211.249 801.383 198.409 801.383 182.578V130.224C801.383 114.39 814.221 101.552 830.055 101.552H857.329C873.162 101.552 886 114.392 886 130.224V182.578C886 198.411 873.162 211.249 857.329 211.249ZM700.201 122.004H727.11C743.043 122.004 755.981 134.644 755.981 150.244V184.636V261.288L755.982 359.99C755.948 375.557 743.043 388.197 727.11 388.197H700.201C684.268 388.197 671.33 375.557 671.33 359.957V261.386L671.329 261.335L671.329 261.255V184.636V150.244C671.329 134.644 684.267 122.004 700.201 122.004ZM208.327 34H175.231C160.995 34 149.453 43.1468 149.453 54.3892V176.542C149.452 176.625 149.451 176.708 149.451 176.791V351.682V367.813C149.451 379.089 160.993 388.202 175.229 388.202H208.325C222.561 388.202 234.103 379.089 234.103 367.847V351.715V176.791C234.103 172.036 232.05 167.666 228.608 164.201C232.051 167.666 234.105 172.037 234.105 176.793V54.3892C234.105 43.1135 222.563 34 208.327 34ZM335.718 309.326H308.809C292.876 309.326 279.937 296.686 279.937 281.086V359.999C279.937 375.599 292.876 388.239 308.809 388.239H335.718C351.651 388.239 364.589 375.599 364.589 359.999V281.428C364.591 281.313 364.592 281.197 364.592 281.081V173.041V150.244C364.592 134.644 351.653 122.004 335.72 122.004H308.811C292.846 122.004 279.94 134.644 279.94 150.244V173.041V281.081C279.94 296.681 292.878 309.322 308.811 309.322H335.72C346.306 309.322 355.569 303.743 360.595 295.423C355.57 303.745 346.305 309.326 335.718 309.326ZM417.471 349.118C413.311 344.593 410.775 338.584 410.775 331.989V103.15V59.4782C410.775 45.409 422.318 34 436.553 34H469.649C483.885 34 495.427 45.4072 495.427 59.4782V103.15V331.989C495.427 332.074 495.427 332.158 495.426 332.243V451.233C495.426 465.303 483.884 476.712 469.648 476.712H436.552C422.316 476.712 410.774 465.303 410.774 451.233V331.988C410.774 338.583 413.31 344.593 417.471 349.118Z" fill="url(#paint0_linear)"/>
<path opacity="0.55" fill-rule="evenodd" clip-rule="evenodd" d="M581.149 0H548.053C533.818 0 522.275 11.409 522.275 25.4782V142.446C522.275 142.483 522.275 142.519 522.275 142.556L522.275 142.558V213.756V417.205C522.275 431.274 533.817 442.683 548.053 442.683H581.149C595.385 442.683 606.927 431.307 606.927 417.238V213.79V142.558C606.927 128.489 595.385 117.08 581.149 117.08H548.053C545.522 117.08 543.075 117.44 540.764 118.112C543.075 117.44 545.522 117.078 548.053 117.078H581.149C595.385 117.078 606.927 128.487 606.927 142.556V25.4782C606.927 11.4072 595.385 0 581.149 0ZM28.6715 177.249H55.9454C71.777 177.249 84.617 164.411 84.617 148.578V96.2237C84.617 80.3921 71.7788 67.5521 55.9454 67.5521H28.6715C12.8382 67.5521 0 80.3903 0 96.2237V148.578C0 164.409 12.8382 177.249 28.6715 177.249ZM838.329 177.249H811.055C795.221 177.249 782.383 164.409 782.383 148.578V96.2237C782.383 80.3903 795.221 67.5521 811.055 67.5521H838.329C854.162 67.5521 867 80.3921 867 96.2237V148.578C867 164.411 854.162 177.249 838.329 177.249ZM681.201 88.0043H708.11C724.043 88.0043 736.981 100.644 736.981 116.244V150.636V227.288L736.982 325.99C736.948 341.557 724.043 354.197 708.11 354.197H681.201C665.268 354.197 652.33 341.557 652.33 325.957V227.386L652.329 227.335L652.329 227.255V150.636V116.244C652.329 100.644 665.267 88.0043 681.201 88.0043ZM189.327 0H156.231C141.995 0 130.453 9.14683 130.453 20.3892V142.542C130.452 142.625 130.451 142.708 130.451 142.791V317.682V333.813C130.451 345.089 141.993 354.202 156.229 354.202H189.325C203.561 354.202 215.103 345.089 215.103 333.847V317.715V142.791C215.103 138.036 213.05 133.666 209.608 130.201C213.051 133.666 215.105 138.037 215.105 142.793V20.3892C215.105 9.11351 203.563 0 189.327 0ZM316.718 275.326H289.809C273.876 275.326 260.937 262.686 260.937 247.086V325.999C260.937 341.599 273.876 354.239 289.809 354.239H316.718C332.651 354.239 345.589 341.599 345.589 325.999V247.428C345.591 247.313 345.592 247.197 345.592 247.081V139.041V116.244C345.592 100.644 332.653 88.0043 316.72 88.0043H289.811C273.846 88.0043 260.94 100.644 260.94 116.244V139.041V247.081C260.94 262.681 273.878 275.322 289.811 275.322H316.72C327.306 275.322 336.569 269.743 341.595 261.423C336.57 269.745 327.305 275.326 316.718 275.326ZM398.471 315.118C394.311 310.593 391.775 304.584 391.775 297.989V69.1501V25.4782C391.775 11.409 403.318 0 417.553 0H450.649C464.885 0 476.427 11.4072 476.427 25.4782V69.1501V297.989C476.427 298.074 476.427 298.158 476.426 298.243V417.233C476.426 431.303 464.884 442.712 450.648 442.712H417.552C403.316 442.712 391.774 431.303 391.774 417.233V297.988C391.774 304.583 394.31 310.593 398.471 315.118Z" fill="url(#paint1_linear)"/>
<defs>
<linearGradient id="paint0_linear" x1="779.933" y1="-1651.26" x2="779.933" y2="357.467" gradientUnits="userSpaceOnUse">
<stop stop-color="white"/>
<stop offset="1" stop-color="white" stop-opacity="0"/>
</linearGradient>
<linearGradient id="paint1_linear" x1="760.933" y1="-1685.26" x2="760.933" y2="323.467" gradientUnits="userSpaceOnUse">
<stop stop-color="white"/>
<stop offset="1" stop-color="white" stop-opacity="0"/>
</linearGradient>
</defs>
</svg>
