<svg width="890" height="481" viewBox="0 0 890 481" fill="none" xmlns="http://www.w3.org/2000/svg">
<path opacity="0.55" fill-rule="evenodd" clip-rule="evenodd" d="M604.149 38H571.053C556.818 38 545.275 49.409 545.275 63.4782V180.446C545.275 180.483 545.275 180.519 545.275 180.556L545.275 180.558V251.756V455.205C545.275 469.274 556.817 480.683 571.053 480.683H604.149C618.385 480.683 629.927 469.307 629.927 455.238V251.79V180.558C629.927 166.489 618.385 155.08 604.149 155.08H571.053C568.522 155.08 566.075 155.44 563.764 156.112C566.075 155.44 568.522 155.078 571.053 155.078H604.149C618.385 155.078 629.927 166.487 629.927 180.556V63.4782C629.927 49.4072 618.385 38 604.149 38ZM51.6715 215.249H78.9454C94.777 215.249 107.617 202.411 107.617 186.578V134.224C107.617 118.392 94.7788 105.552 78.9454 105.552H51.6715C35.8382 105.552 23 118.39 23 134.224V186.578C23 202.409 35.8382 215.249 51.6715 215.249ZM861.329 215.249H834.055C818.221 215.249 805.383 202.409 805.383 186.578V134.224C805.383 118.39 818.221 105.552 834.055 105.552H861.329C877.162 105.552 890 118.392 890 134.224V186.578C890 202.411 877.162 215.249 861.329 215.249ZM704.201 126.004H731.11C747.043 126.004 759.981 138.644 759.981 154.244V188.636V265.288L759.982 363.99C759.948 379.557 747.043 392.197 731.11 392.197H704.201C688.268 392.197 675.33 379.557 675.33 363.957V265.386L675.329 265.335L675.329 265.255V188.636V154.244C675.329 138.644 688.267 126.004 704.201 126.004ZM212.327 38H179.231C164.995 38 153.453 47.1468 153.453 58.3892V180.542C153.452 180.625 153.451 180.708 153.451 180.791V355.682V371.813C153.451 383.089 164.993 392.202 179.229 392.202H212.325C226.561 392.202 238.103 383.089 238.103 371.847V355.715V180.791C238.103 176.036 236.05 171.666 232.608 168.201C236.051 171.666 238.105 176.037 238.105 180.793V58.3892C238.105 47.1135 226.563 38 212.327 38ZM339.718 313.326H312.809C296.876 313.326 283.937 300.686 283.937 285.086V363.999C283.937 379.599 296.876 392.239 312.809 392.239H339.718C355.651 392.239 368.589 379.599 368.589 363.999V285.428C368.591 285.313 368.592 285.197 368.592 285.081V177.041V154.244C368.592 138.644 355.653 126.004 339.72 126.004H312.811C296.846 126.004 283.94 138.644 283.94 154.244V177.041V285.081C283.94 300.681 296.878 313.322 312.811 313.322H339.72C350.306 313.322 359.569 307.743 364.595 299.423C359.57 307.745 350.305 313.326 339.718 313.326ZM421.471 353.118C417.311 348.593 414.775 342.584 414.775 335.989V107.15V63.4782C414.775 49.409 426.318 38 440.553 38H473.649C487.885 38 499.427 49.4072 499.427 63.4782V107.15V335.989C499.427 336.074 499.427 336.158 499.426 336.243V455.233C499.426 469.303 487.884 480.712 473.648 480.712H440.552C426.316 480.712 414.774 469.303 414.774 455.233V335.988C414.774 342.583 417.31 348.593 421.471 353.118Z" fill="url(#paint0_linear)"/>
<path opacity="0.55" fill-rule="evenodd" clip-rule="evenodd" d="M581.149 0H548.053C533.818 0 522.275 11.409 522.275 25.4782V142.446C522.275 142.483 522.275 142.519 522.275 142.556L522.275 142.558V213.756V417.205C522.275 431.274 533.817 442.683 548.053 442.683H581.149C595.385 442.683 606.927 431.307 606.927 417.238V213.79V142.558C606.927 128.489 595.385 117.08 581.149 117.08H548.053C545.522 117.08 543.075 117.44 540.764 118.112C543.075 117.44 545.522 117.078 548.053 117.078H581.149C595.385 117.078 606.927 128.487 606.927 142.556V25.4782C606.927 11.4072 595.385 0 581.149 0ZM28.6715 177.249H55.9454C71.777 177.249 84.617 164.411 84.617 148.578V96.2237C84.617 80.3921 71.7788 67.5521 55.9454 67.5521H28.6715C12.8382 67.5521 0 80.3903 0 96.2237V148.578C0 164.409 12.8382 177.249 28.6715 177.249ZM838.329 177.249H811.055C795.221 177.249 782.383 164.409 782.383 148.578V96.2237C782.383 80.3903 795.221 67.5521 811.055 67.5521H838.329C854.162 67.5521 867 80.3921 867 96.2237V148.578C867 164.411 854.162 177.249 838.329 177.249ZM681.201 88.0043H708.11C724.043 88.0043 736.981 100.644 736.981 116.244V150.636V227.288L736.982 325.99C736.948 341.557 724.043 354.197 708.11 354.197H681.201C665.268 354.197 652.33 341.557 652.33 325.957V227.386L652.329 227.335L652.329 227.255V150.636V116.244C652.329 100.644 665.267 88.0043 681.201 88.0043ZM189.327 0H156.231C141.995 0 130.453 9.14683 130.453 20.3892V142.542C130.452 142.625 130.451 142.708 130.451 142.791V317.682V333.813C130.451 345.089 141.993 354.202 156.229 354.202H189.325C203.561 354.202 215.103 345.089 215.103 333.847V317.715V142.791C215.103 138.036 213.05 133.666 209.608 130.201C213.051 133.666 215.105 138.037 215.105 142.793V20.3892C215.105 9.11351 203.563 0 189.327 0ZM316.718 275.326H289.809C273.876 275.326 260.937 262.686 260.937 247.086V325.999C260.937 341.599 273.876 354.239 289.809 354.239H316.718C332.651 354.239 345.589 341.599 345.589 325.999V247.428C345.591 247.313 345.592 247.197 345.592 247.081V139.041V116.244C345.592 100.644 332.653 88.0043 316.72 88.0043H289.811C273.846 88.0043 260.94 100.644 260.94 116.244V139.041V247.081C260.94 262.681 273.878 275.322 289.811 275.322H316.72C327.306 275.322 336.569 269.743 341.595 261.423C336.57 269.745 327.305 275.326 316.718 275.326ZM398.471 315.118C394.311 310.593 391.775 304.584 391.775 297.989V69.1501V25.4782C391.775 11.409 403.318 0 417.553 0H450.649C464.885 0 476.427 11.4072 476.427 25.4782V69.1501V297.989C476.427 298.074 476.427 298.158 476.426 298.243V417.233C476.426 431.303 464.884 442.712 450.648 442.712H417.552C403.316 442.712 391.774 431.303 391.774 417.233V297.988C391.774 304.583 394.31 310.593 398.471 315.118Z" fill="url(#paint1_linear)"/>
<defs>
<linearGradient id="paint0_linear" x1="783.933" y1="-1647.26" x2="783.933" y2="361.467" gradientUnits="userSpaceOnUse">
<stop stop-color="white"/>
<stop offset="1" stop-color="white" stop-opacity="0"/>
</linearGradient>
<linearGradient id="paint1_linear" x1="760.933" y1="-1685.26" x2="760.933" y2="323.467" gradientUnits="userSpaceOnUse">
<stop stop-color="white"/>
<stop offset="1" stop-color="white" stop-opacity="0"/>
</linearGradient>
</defs>
</svg>
